<svg xmlns="http://www.w3.org/2000/svg" width="85" height="71">
    <path fill="none" fill-rule="evenodd" d="M0 0h84v70H0V0z"/>
    <path fill="none" fill-rule="evenodd" stroke="#FC6F1A" stroke-linecap="round" stroke-linejoin="round" stroke-width="2" d="M61.933 47.838v7.816H15.765v-7.816S14.04 35.223 30.191 31.893c-2.883-2.46-4.729-6.21-4.729-10.416 0-7.411 5.724-13.419 12.782-13.419 4.425 0 8.324 2.36 10.618 5.948a13.829 13.829 0 0 1 2.164 7.471c0 4.102-1.758 7.768-4.519 10.229 17.218 3.006 15.426 16.132 15.426 16.132z"/>
    <path fill="#FFF" fill-rule="evenodd" stroke="#FC6F1A" stroke-linecap="round" stroke-linejoin="round" stroke-width="2" d="M48.237 48.707v6.947H6.297v-6.947S4.729 37.493 19.401 34.533c-2.616-2.188-4.289-5.519-4.289-9.255 0-6.59 5.201-11.932 11.615-11.932 6.416 0 11.616 5.342 11.616 11.932 0 3.642-1.594 6.898-4.098 9.087 2.146.367 3.971.901 5.515 1.554 1.755.742 5.022 2.842 7.168 6.262 2.028 3.232 1.309 6.526 1.309 6.526z"/>
</svg>
