<svg xmlns="http://www.w3.org/2000/svg" width="44" height="44">
    <path fill="none" d="M0 0h43v43H0V0z"/>
    <path fill="none" stroke="#FC6F1A" stroke-linecap="round" stroke-linejoin="round" stroke-width="2" d="M18.862 9.202c1.378-1.944 3.59-3.205 6.084-3.205 2.617 0 4.924 1.389 6.282 3.499a8.11 8.11 0 0 1 1.28 4.396c0 2.453-1.071 4.644-2.752 6.092 0 0-.304-.144-.088-.109 10.374 1.71 9.292 9.525 9.292 9.525v4.599h-8.642"/>
    <path fill="none" stroke="#FC6F1A" stroke-linecap="round" stroke-linejoin="round" stroke-width="2" d="M30.858 29.911v4.088H6.046v-4.088s-.931-6.617 7.79-8.346a7.037 7.037 0 0 1-2.567-5.435c0-3.879 3.075-7.023 6.868-7.023s6.868 3.144 6.868 7.023a7.037 7.037 0 0 1-2.458 5.342c1.281.217 2.376.529 3.296.916 1.038.437 2.971 1.672 4.24 3.685 1.201 1.901.775 3.838.775 3.838z"/>
</svg>
