<svg xmlns="http://www.w3.org/2000/svg" width="106.5" height="106.5">
    <path fill="none" stroke="#D1D1D1" stroke-width="3" d="M6.5 8h93a4 4 0 0 1 4 4v84.5a4 4 0 0 1-4 4h-93a4 4 0 0 1-4-4V12a4 4 0 0 1 4-4zM2.473 32.292h96.653M33.226 23.492V1.49M55.193 23.492V1.49M77.159 23.492V1.49"/>
    <path fill="#FFF" fill-rule="evenodd" stroke="#D1D1D1" stroke-width="3" d="M70.578 44.5c11.641 0 21.078 9.535 21.078 21.297s-9.437 21.297-21.078 21.297S49.5 77.559 49.5 65.797 58.937 44.5 70.578 44.5z"/>
    <path fill="none" stroke="#D1D1D1" stroke-width="3" d="M84.431 79.791l18.069 20.905"/>
</svg>
